<svg width="20" height="20" viewBox="0 0 20 20" fill="currentColor" xmlns="http://www.w3.org/2000/svg">
  <path d="M10 2C10.5523 2 11 2.44772 11 3V11.5858L13.2929 9.29289C13.6834 8.90237 14.3166 8.90237 14.7071 9.29289C15.0976 9.68342 15.0976 10.3166 14.7071 10.7071L10.7071 14.7071C10.3166 15.0976 9.68342 15.0976 9.29289 14.7071L5.29289 10.7071C4.90237 10.3166 4.90237 9.68342 5.29289 9.29289C5.68342 8.90237 6.31658 8.90237 6.70711 9.29289L9 11.5858V3C9 2.44772 9.44772 2 10 2Z"/>
  <path d="M4 14C4 13.4477 3.55228 13 3 13C2.44772 13 2 13.4477 2 14V15C2 16.6569 3.34315 18 5 18H15C16.6569 18 18 16.6569 18 15V14C18 13.4477 17.5523 13 17 13C16.4477 13 16 13.4477 16 14V15C16 15.5523 15.5523 16 15 16H5C4.44772 16 4 15.5523 4 15V14Z"/>
</svg>
