<svg width="24" height="24" viewBox="0 0 24 24" fill="none" xmlns="http://www.w3.org/2000/svg">
<path d="M19.4856 20.1536L13.2236 13.8916C12.7236 14.3176 12.1486 14.6472 11.4986 14.8806C10.8486 15.1139 10.1953 15.2306 9.53859 15.2306C7.93726 15.2306 6.58193 14.6762 5.47259 13.5676C4.36326 12.4589 3.80859 11.1039 3.80859 9.50256C3.80859 7.90122 4.36259 6.54556 5.47059 5.43556C6.57859 4.32556 7.93326 3.76989 9.53459 3.76856C11.1359 3.76722 12.4919 4.32189 13.6026 5.43256C14.7133 6.54322 15.2686 7.89889 15.2686 9.49956C15.2686 10.1942 15.1456 10.8666 14.8996 11.5166C14.6536 12.1666 14.3303 12.7226 13.9296 13.1846L20.1916 19.4456L19.4856 20.1536ZM9.53959 14.2296C10.8663 14.2296 11.9863 13.7729 12.8996 12.8596C13.8129 11.9462 14.2696 10.8259 14.2696 9.49856C14.2696 8.17122 13.8129 7.05122 12.8996 6.13856C11.9863 5.22589 10.8663 4.76922 9.53959 4.76856C8.21293 4.76789 7.09259 5.22456 6.17859 6.13856C5.26459 7.05256 4.80793 8.17256 4.80859 9.49856C4.80926 10.8246 5.26593 11.9446 6.17859 12.8586C7.09126 13.7726 8.21126 14.2292 9.53859 14.2286" fill="#2E3943"/>
</svg>
