<svg width="20" height="20" viewBox="0 0 20 20" fill="currentColor" xmlns="http://www.w3.org/2000/svg">
  <path fill-rule="evenodd" clip-rule="evenodd" d="M11.4892 3.17094C11.1102 1.60969 8.8898 1.60969 8.51078 3.17094C8.26594 4.17949 7.11045 4.65811 6.22416 4.13035C4.85218 3.30618 3.30618 4.85218 4.13035 6.22416C4.65811 7.11045 4.17949 8.26594 3.17094 8.51078C1.60969 8.8898 1.60969 11.1102 3.17094 11.4892C4.17949 11.7341 4.65811 12.8896 4.13035 13.7758C3.30618 15.1478 4.85218 16.6938 6.22416 15.8696C7.11045 15.3419 8.26594 15.8205 8.51078 16.8291C8.8898 18.3903 11.1102 18.3903 11.4892 16.8291C11.7341 15.8205 12.8896 15.3419 13.7758 15.8696C15.1478 16.6938 16.6938 15.1478 15.8696 13.7758C15.3419 12.8896 15.8205 11.7341 16.8291 11.4892C18.3903 11.1102 18.3903 8.8898 16.8291 8.51078C15.8205 8.26594 15.3419 7.11045 15.8696 6.22416C16.6938 4.85218 15.1478 3.30618 13.7758 4.13035C12.8896 4.65811 11.7341 4.17949 11.4892 3.17094ZM10 13C11.6569 13 13 11.6569 13 10C13 8.34315 11.6569 7 10 7C8.34315 7 7 8.34315 7 10C7 11.6569 8.34315 13 10 13Z"/>
</svg>
