<svg width="20" height="20" viewBox="0 0 20 20" fill="currentColor" xmlns="http://www.w3.org/2000/svg">
  <path fill-rule="evenodd" clip-rule="evenodd" d="M4 3C3.44772 3 3 3.44772 3 4V8C3 8.55228 3.44772 9 4 9H8C8.55228 9 9 8.55228 9 8V4C9 3.44772 8.55228 3 8 3H4ZM5 7V5H7V7H5Z"/>
  <path fill-rule="evenodd" clip-rule="evenodd" d="M4 11C3.44772 11 3 11.4477 3 12V16C3 16.5523 3.44772 17 4 17H8C8.55228 17 9 16.5523 9 16V12C9 11.4477 8.55228 11 8 11H4ZM5 15V13H7V15H5Z"/>
  <path fill-rule="evenodd" clip-rule="evenodd" d="M11 4C11 3.44772 11.4477 3 12 3H16C16.5523 3 17 3.44772 17 4V8C17 8.55228 16.5523 9 16 9H12C11.4477 9 11 8.55228 11 8V4ZM13 5V7H15V5H13Z"/>
  <path fill-rule="evenodd" clip-rule="evenodd" d="M12 11C11.4477 11 11 11.4477 11 12V16C11 16.5523 11.4477 17 12 17H16C16.5523 17 17 16.5523 17 16V12C17 11.4477 16.5523 11 16 11H12ZM13 15V13H15V15H13Z"/>
</svg>
